<?xml version="1.0" standalone="no"?>
<svg xmlns:xlink="http://www.w3.org/1999/xlink" width="16" height="16" viewBox="0 0 40 40" fill="none" xmlns="http://www.w3.org/2000/svg"><path fill-rule="evenodd" clip-rule="evenodd" d="M20 2.72727L25.2727 0L28.5455 5.09091L34.7273 5.27273L34.9091 11.4545L40 14.7273L37.2727 20L40 25.2727L34.9091 28.5455L34.7273 34.7273L28.5455 34.9091L25.2727 40L20 37.2727L14.7273 40L11.4545 34.9091L5.27273 34.7273L5.09091 28.5455L0 25.2727L2.72727 20L0 14.7273L5.09091 11.4545L5.27273 5.27273L11.4545 5.09091L14.7273 0L20 2.72727Z" fill="url(#7d9f9d32-2daf-4f34-81e8-f3ae26f7553d)"/><path d="M17.4988 25.4956L11.9995 20.5876L14.445 18.4051L17.4988 21.1382L26.052 13.4971L28.4975 15.6796L17.4988 25.4956Z" fill="white"/><defs><linearGradient id="7d9f9d32-2daf-4f34-81e8-f3ae26f7553d" x1="0" y1="20" x2="40" y2="20" gradientUnits="userSpaceOnUse"><stop stop-color="#1199FA"/><stop offset="1" stop-color="#11D0FA"/></linearGradient></defs></svg>